<svg xmlns="http://www.w3.org/2000/svg" width="239.265" height="613.194" viewBox="0 0 239.265 613.194">
  <g id="Group_9" data-name="Group 9" transform="translate(-265.503 -104.106)">
    <path id="Path_53" data-name="Path 53" d="M371.271,216.644,307.8,227.392a6.424,6.424,0,0,1-7.27-4.613c-4.585-16.549-14.172-38.139-4.864-48.977a17.805,17.805,0,0,1,18.755-15.933h0c11.338-17.747,30.222-15.083,42.986-4,12.845,4.432,17.688,12.307,15.995,22.992,5.549,4.857,8.459,10.329,9.072,16.334a23.589,23.589,0,0,1-6.454,18.351Z" transform="translate(44 -40.947)" fill="#2f2e41"/>
    <path id="Path_54" data-name="Path 54" d="M361.4,266.609l-49.2-2.894c4.822-11.067,6.748-21.724,4.824-31.836h36.659C353.6,239.644,357.466,253.074,361.4,266.609Z" transform="translate(44 -40.947)" fill="#e2e2e2"/>
    <path id="Path_55" data-name="Path 55" d="M302.18,721.236l-2.018,27.588a8.782,8.782,0,0,0,9.29,9.407l14.17-.858a4.479,4.479,0,0,0,4.074-5.557l-7.866-31.462Z" transform="translate(44 -40.947)" fill="#e6e6e6"/>
    <path id="Path_56" data-name="Path 56" d="M348.055,720.353l-7.866,31.462a4.48,4.48,0,0,0,4.074,5.558l14.17.858a8.782,8.782,0,0,0,9.29-9.407l-2.018-27.588Z" transform="translate(44 -40.947)" fill="#e6e6e6"/>
    <path id="Path_57" data-name="Path 57" d="M210.62,584.119,191.5,582.2,172.46,378.7l-7.2,202.843-18.787-.673L114.813,299.944H235.79Z" transform="translate(200 100)" fill="#6e9887"/>
    <circle id="Ellipse_7" data-name="Ellipse 7" cx="36.537" cy="36.537" r="36.537" transform="translate(343.786 129.57)" fill="#e2e2e2"/>
    <path id="Path_58" data-name="Path 58" d="M377.5,189.6c-14.829-2.583-29.409-2.937-43.582.339-9.028,2.955-19.87,2.683-31.928.248V165.548l65.094,1.173Z" transform="translate(44 -40.947)" fill="#2f2e41"/>
    <path id="Path_59" data-name="Path 59" d="M360.639,236.37c-15.984,6.649-32.744,6.379-50.189,0,5.076-8.664-2.512-15.45-6.407-24.2l65.138-1.936C364.2,217.836,356.85,226.813,360.639,236.37Z" transform="translate(44 -40.947)" fill="#fff"/>
    <rect id="Rectangle_61" data-name="Rectangle 61" width="1.001" height="8.34" transform="translate(342.918 167.004) rotate(-50.195)" fill="#fff"/>
    <rect id="Rectangle_62" data-name="Rectangle 62" width="20.885" height="1" transform="matrix(0.537, -0.844, 0.844, 0.537, 403.147, 194.649)" fill="#fff"/>
    <rect id="Rectangle_63" data-name="Rectangle 63" width="1" height="20.885" transform="translate(343.883 177.567) rotate(-32.471)" fill="#fff"/>
    <path id="Path_60" data-name="Path 60" d="M266.861,373.693l-27.977-17.365,23.859-69.879a32.966,32.966,0,0,1,14.41-17.116l8.037-4.653.7,70.495Z" transform="translate(44 -40.947)" fill="#6e9887"/>
    <path id="Path_61" data-name="Path 61" d="M387.789,407.631l-4.139-35.452c-.221-18.713,2.962-36.8,10.554-53.475l3.859-52.095-42.447-17.365c-.13.865-.241,1.729-.365,2.594l-19.894,9.947-19.4-4.409.107-6.2-38.589,17.365c12.761,59.328,5.8,120.938-16.144,193.709l50.837,13.9.423-24.41L357.9,448.5c.467,7.92.842,15.7,1.059,23.305,25.565,9.412,26.443,9.256,49.737-4.22C399.415,448.084,392.07,427.79,387.789,407.631Z" transform="translate(44 -40.947)" fill="#6e9887"/>
    <path id="Path_62" data-name="Path 62" d="M297.051,224.063,271,215.381l-41.664-48.5,12.722-41.215L299.945,206.7Z" transform="translate(200 100)" fill="#6e9887"/>
    <path id="Path_63" data-name="Path 63" d="M371.419,402.56a7.246,7.246,0,0,0,8.655,5.459l22.111-5.007-3.2-14.113L376.878,393.9a7.237,7.237,0,0,0-5.459,8.655Z" transform="translate(44 -40.947)" fill="#e6e6e6"/>
    <path id="Path_64" data-name="Path 64" d="M391.309,386.234l12.541,23.153c21.094-5.883,39.376-24.431,56.918-46.306l-4.824-15.435-29.906,7.718Z" transform="translate(44 -40.947)" fill="#6e9887"/>
    <path id="Path_65" data-name="Path 65" d="M71.79,172.661l24.076,4.3L150.9,255.207l-29.235-6.879Z" transform="translate(200 100)" fill="#e6e6e6"/>
    <path id="Path_66" data-name="Path 66" d="M223.52,312.65a2.048,2.048,0,0,0-1.68,3.173l51.439,78.046a2.041,2.041,0,0,0,1.239.865l23.933,5.631a2.044,2.044,0,0,0,2.14-3.166l-56.478-80.3a2.033,2.033,0,0,0-1.313-.836l-18.9-3.375a2.218,2.218,0,0,0-.386-.035Z" transform="translate(44 -40.947)" fill="#3f3d56"/>
    <path id="Path_67" data-name="Path 67" d="M255.608,368.452l1.43,14.4,22.56-2.239a7.235,7.235,0,1,0-1.429-14.4Z" transform="translate(44 -40.947)" fill="#e6e6e6"/>
    <path id="Path_68" data-name="Path 68" d="M235.991,366.784a18.609,18.609,0,0,0,18.587,18.485h3.71l2.7-22.505-22.36-8.05Z" transform="translate(44 -40.947)" fill="#6e9887"/>
    <path id="Path_69" data-name="Path 69" d="M211.4,71.78l-.707-.707L211.76,70l6.381-7.447.759.65-6.407,7.475Z" transform="translate(200 100)" fill="#fff"/>
  </g>
</svg>
